<?xml version="1.0" standalone="no"?><!DOCTYPE svg PUBLIC "-//W3C//DTD SVG 1.1//EN" "http://www.w3.org/Graphics/SVG/1.1/DTD/svg11.dtd"><svg class="icon" width="200px" height="200.00px" viewBox="0 0 1024 1024" version="1.1" xmlns="http://www.w3.org/2000/svg"><path fill="#ffffff" d="M1010.961433 499.637438 854.787511 499.637438 854.787511 343.462492c0-7.185656-5.821589-13.016455-13.016455-13.016455l-39.035038 0c-7.194866 0-13.016455 5.830799-13.016455 13.016455l0 156.174945L633.548711 499.637438c-7.191796 0-13.021571 5.821589-13.021571 13.016455l0 39.035038c0 7.194866 5.828752 13.016455 13.021571 13.016455l156.169829 0 0 156.173922c0 7.185656 5.821589 13.016455 13.016455 13.016455l39.035038 0c7.194866 0 13.016455-5.831822 13.016455-13.016455L854.786488 564.705386l156.174945 0c7.185656 0 13.016455-5.821589 13.016455-13.016455l0-39.035038C1023.978911 505.458003 1018.148113 499.637438 1010.961433 499.637438zM715.219802 758.535953c-49.111534-29.475312-100.313683-40.74396-150.957107-67.919902-73.680093-39.512922-78.770018-74.42506-30.707372-141.700279 44.221154-61.940724 63.910589-193.594183 53.972239-267.783883-11.743462-87.976704-74.634838-156.551522-169.44518-169.20368-7.564279-1.014096-15.112186-1.358951-22.632463-1.408069-7.52744 0.049119-15.068184 0.393973-22.63758 1.408069-94.805226 12.652158-157.701718 81.226976-169.450297 169.20368-9.92607 74.188676 9.753131 205.843158 53.984518 267.783883 48.067762 67.274196 42.97272 102.187357-30.704302 141.700279-50.652634 27.175943-101.862969 38.444591-150.971433 67.919902-38.173414 22.935362-67.88511 41.911552-75.139328 93.849458-3.540639 71.614038 9.951653 60.419068 84.581374 60.507072 103.437837 0.127913 310.338071 0.099261 310.338071 0.099261 103.44807 0.005117 206.897164 0.029676 310.338071-0.099261 74.627674-0.088004 88.11178 11.105942 84.585467-60.507072C786.114455 802.968931 753.403449 781.472338 715.219802 758.535953z" /></svg>