<?xml version="1.0" standalone="no"?><!DOCTYPE svg PUBLIC "-//W3C//DTD SVG 1.1//EN" "http://www.w3.org/Graphics/SVG/1.1/DTD/svg11.dtd"><svg class="icon" width="32px" height="32.00px" viewBox="0 0 1024 1024" version="1.1" xmlns="http://www.w3.org/2000/svg"><path fill="#8a8a8a" d="M511.42002 0C238.109366 0 16.516129 184.542968 16.516129 412.202314 16.516129 547.033716 102.546927 666.778492 222.726078 741.964172 222.726078 741.964172 140.242118 989.986321 199.506845 989.986321 356.267669 989.986321 440.978696 824.404662 469.724391 824.404662L470.178056 824.404662C483.787908 824.404662 497.521499 825.105408 511.42002 825.105408 784.730707 825.105408 1006.323943 640.191422 1006.323943 412.5733 1006.323943 184.913953 784.730707 0 511.42002 0L511.42002 0 511.42002 0ZM511.42002 741.964172C499.542346 741.964172 487.582158 742.252742 475.869448 741.469547L472.52883 741.964172 469.724391 741.964172C424.688111 741.964172 398.169517 770.32372 367.444232 804.000636 341.173083 832.77236 308.509432 868.18053 268.339729 889.244077 275.722042 853.423699 287.558491 808.534875 301.00338 768.180257L321.459431 706.556003 266.483844 672.137117C161.605467 606.514506 99.000122 509.317186 99.000122 412.202314 99.000122 230.379883 284.011685 82.440456 511.42002 82.440456 738.828387 82.440456 923.83995 230.379883 923.83995 412.202314 923.83995 594.024778 738.828387 741.964172 511.42002 741.964172L511.42002 741.964172 511.42002 741.964172Z" /></svg>