<?xml version="1.0" standalone="no"?><!DOCTYPE svg PUBLIC "-//W3C//DTD SVG 1.1//EN" "http://www.w3.org/Graphics/SVG/1.1/DTD/svg11.dtd"><svg class="icon" width="32px" height="32.00px" viewBox="0 0 1024 1024" version="1.1" xmlns="http://www.w3.org/2000/svg"><path fill="#1afa29" d="M939.6736 973.7216 83.5584 973.7216l-45.0048-28.8768-2.816-8.2944c-1.3824-3.9936-12.8-41.0112-0.9216-79.4112l1.1264-3.8912 2.4576-3.2256c27.7504-38.0928 97.536-76.288 171.3152-116.992 67.4816-37.3248 169.6256-92.8768 170.2912-122.7776l0.1024-28.416c-64.512-62.208-99.9936-147.0976-99.9936-240.128 0-144.128 27.5968-291.328 231.424-291.328s231.2192 147.2 231.2192 291.2256c0 93.0816-35.2256 178.0224-99.6864 240.0768l0 28.8768c0.9728 29.2864 102.9632 85.2992 170.2912 122.4192 73.6256 40.704 143.4112 78.8992 171.2128 116.992l2.7648 3.3792 1.0752 3.584c11.8272 38.4 0.5632 75.7248-0.9728 79.7184l-2.8672 8.2944L939.6736 973.7216zM97.9456 924.3136l827.1872 0 17.2032-10.9056c1.6896-8.6016 3.3792-23.0912 0-37.5808-23.9104-28.8256-89.1904-64.8192-152.6784-99.4816-104.2944-57.3952-194.7136-107.008-195.7888-165.2224l-0.2048-50.9952 8.192-7.424c59.0848-53.4016 91.8016-128.4096 91.8016-211.2512 0-153.1904-29.9008-241.9712-182.016-241.9712-152.2176 0-182.016 88.7296-182.016 241.9712 0 82.8928 32.5632 157.8496 91.6992 211.2512l8.2944 7.424L429.568 610.4064c-1.2288 58.624-91.4944 108.4928-195.9936 165.888C170.2912 811.008 104.7552 847.0016 80.896 875.52c-3.4304 14.3872-1.8432 28.8768-0.1024 37.376L97.9456 924.3136zM758.0672 184.0128l236.4928 0 0 51.2-236.4928 0L758.0672 184.0128zM820.8896 365.3632l173.6704 0 0 51.2-173.6704 0L820.8896 365.3632zM864.0512 542.4128l129.0752 0 0 51.2-129.0752 0L864.0512 542.4128z" /></svg>