<?xml version="1.0" standalone="no"?><!DOCTYPE svg PUBLIC "-//W3C//DTD SVG 1.1//EN" "http://www.w3.org/Graphics/SVG/1.1/DTD/svg11.dtd"><svg class="icon" width="32px" height="32.00px" viewBox="0 0 1024 1024" version="1.1" xmlns="http://www.w3.org/2000/svg"><path fill="#8a8a8a" d="M922.917814 338.39508c-22.463618-53.110615-54.615898-100.8018-95.564519-141.749398-40.947598-40.947598-88.638783-73.100902-141.749398-95.564519-55.001685-23.263843-113.410979-35.059494-173.603897-35.059494s-118.602212 11.795651-173.603897 35.059494c-53.110615 22.463618-100.8018 54.616922-141.750421 95.564519-40.947598 40.947598-73.100902 88.639806-95.564519 141.749398-23.263843 55.002708-35.059494 113.410979-35.059494 173.603897 0 60.193941 11.795651 118.602212 35.059494 173.60492 22.463618 53.109592 54.616922 100.8018 95.564519 141.749398 40.948621 40.948621 88.639806 73.100902 141.750421 95.564519 55.002708 23.263843 113.410979 35.060517 173.603897 35.060517s118.602212-11.795651 173.603897-35.060517c53.110615-22.463618 100.802824-54.615898 141.749398-95.564519 40.948621-40.948621 73.100902-88.639806 95.564519-141.749398 23.263843-55.002708 35.060517-113.410979 35.060517-173.60492C957.978331 451.806059 946.18268 393.397788 922.917814 338.39508zM783.939529 783.939529c-72.637344 72.637344-169.213913 112.64043-271.939529 112.64043-102.724593 0-199.302185-40.003086-271.939529-112.64043-72.637344-72.637344-112.641453-169.214936-112.641453-271.940552 0-102.725616 40.003086-199.301162 112.641453-271.939529 72.637344-72.637344 169.213913-112.64043 271.939529-112.64043s199.302185 40.003086 271.939529 112.64043c72.637344 72.637344 112.64043 169.213913 112.64043 271.939529C896.579959 614.724593 856.576873 711.302185 783.939529 783.939529zM692.143846 297.626561 434.390411 423.910733c-5.113461 2.505054-9.244548 6.64535-11.740392 11.763928L297.604048 692.188872c-4.78805 9.821693-2.809999 21.598924 4.924149 29.317723 4.9088 4.898567 11.447726 7.476275 18.078751 7.476275 3.815909 0 7.66354-0.854461 11.248182-2.610454l257.752412-126.283148c5.113461-2.505054 9.245572-6.644327 11.740392-11.762905L726.394928 331.810105c4.78805-9.821693 2.809999-21.598924-4.924149-29.317723C713.736631 294.774607 701.954283 292.819069 692.143846 297.626561zM559.207162 558.007847 376.23592 647.653563l88.556918-181.66141 182.971241-89.645716L559.207162 558.007847zM512 512m-34.808784 0a34.016 34.016 0 1 0 69.617567 0 34.016 34.016 0 1 0-69.617567 0Z" /></svg>