<?xml version="1.0" standalone="no"?><!DOCTYPE svg PUBLIC "-//W3C//DTD SVG 1.1//EN" "http://www.w3.org/Graphics/SVG/1.1/DTD/svg11.dtd"><svg class="icon" width="32px" height="32.00px" viewBox="0 0 1024 1024" version="1.1" xmlns="http://www.w3.org/2000/svg"><path fill="#8a8a8a" d="M696.516434 960.208115c-14.869662 0-30.210046-0.11154-45.906539-0.233314-16.325827-0.11154-33.023114-0.231267-49.976228-0.231267L423.406243 959.743534c-17.778922 0-35.146475 0.119727-52.020794 0.252757-15.968693 0.099261-31.506575 0.210801-46.454008 0.210801-63.508429 0-113.327068-2.096754-150.065807-12.414751-46.987151-13.171997-70.826092-40.104393-70.826092-80.032778L104.039541 850.626347c0-167.623695 140.291187-298.922067 319.366701-298.922067l13.237489 0c-109.627816-28.355815-190.56008-125.097136-190.56008-239.757572 0-136.842645 115.292839-248.154823 257.019725-248.154823 141.724839 0 257.039167 111.312178 257.039167 248.154823 0 114.66146-80.954777 211.401758-190.562127 239.757572L600.633666 551.70428c179.057095 0 319.326792 131.297348 319.326792 298.922067l0 17.134239C919.960459 960.208115 790.821263 960.208115 696.516434 960.208115zM423.406243 920.316569 600.633666 920.316569c17.052374 0 33.847899 0.119727 50.27094 0.25071 15.59928 0.097214 30.841426 0.216941 45.611827 0.216941 118.792547 0 183.16567-8.454556 183.16567-53.024657L879.682104 850.626347c0-145.501862-122.570593-259.492032-279.047414-259.492032L423.406243 591.134315c-156.497287 0-279.085276 113.990171-279.085276 259.492032l0 17.134239c0 15.82543 5.03569 31.882128 41.637306 42.142819 32.235169 9.029654 78.868255 10.881838 138.973168 10.881838 14.867616 0 30.287817-0.099261 46.178739-0.216941C388.064316 920.436296 405.527037 920.316569 423.406243 920.316569zM503.102353 103.216803c-119.501698 0-216.740346 93.64275-216.740346 208.729905 0 115.105574 97.238648 208.745255 216.740346 208.745255 119.520117 0 216.757742-93.640704 216.757742-208.745255C719.860095 196.859553 622.621447 103.216803 503.102353 103.216803z" /></svg>