<?xml version="1.0" standalone="no"?><!DOCTYPE svg PUBLIC "-//W3C//DTD SVG 1.1//EN" "http://www.w3.org/Graphics/SVG/1.1/DTD/svg11.dtd"><svg class="icon" width="200px" height="200.00px" viewBox="0 0 1024 1024" version="1.1" xmlns="http://www.w3.org/2000/svg"><path fill="#ffffff" d="M512 62c-248.512 0-450 201.487-450 450s201.487 450 450 450 450-201.487 450-450-201.487-450-450-450zM680.75 512v56.25h-112.5v56.25h112.5v56.25h-112.5v112.5h-112.5v-112.5h-112.5v-56.25h112.5v-56.25h-112.5v-56.25h93.994l-128.869-225h112.050c50.737 56.25 82.856 168.75 96.244 168.75h2.306c1.744 0 3.825-3.656 6.244-10.912 3.937-11.644 19.8-30.094 47.419-86.963l41.231-70.875h106.144l-132.469 225h93.206z" /></svg>