<?xml version="1.0" standalone="no"?><!DOCTYPE svg PUBLIC "-//W3C//DTD SVG 1.1//EN" "http://www.w3.org/Graphics/SVG/1.1/DTD/svg11.dtd"><svg class="icon" width="200px" height="200.00px" viewBox="0 0 1024 1024" version="1.1" xmlns="http://www.w3.org/2000/svg"><path fill="#ffffff" d="M46.527756 372.228297C18.6186 372.228297 0 353.62844 0 325.70054L0 139.589516C0 65.13386 65.13386 0 139.589516 0L325.70054 0c27.9279 0 46.527756 18.6186 46.527756 46.527756 0 27.909156-18.599856 46.527756-46.527756 46.527756L139.589516 93.055512c-27.9279 0-46.527756 18.599856-46.527756 46.527756L93.06176 325.70054C93.06176 353.62844 74.44316 372.228297 46.527756 372.228297zM325.70054 1023.648121 139.589516 1023.648121C65.13386 1023.648121 0 958.514261 0 884.071101l0-186.12352c0-27.9279 18.6186-46.5465 46.527756-46.5465s46.527756 18.6186 46.527756 46.5465l0 186.12352c0 27.896661 18.599856 46.51526 46.527756 46.51526L325.70054 930.586361c27.9279 0 46.527756 18.6186 46.527756 46.51526C372.228297 1005.029521 353.62844 1023.648121 325.70054 1023.648121zM884.071101 1023.648121l-186.12352 0c-27.9279 0-46.5465-18.6186-46.5465-46.5465 0-27.896661 18.6186-46.51526 46.5465-46.51526l186.12352 0c27.896661 0 46.51526-18.6186 46.51526-46.51526l0-186.12352c0-27.9279 18.6186-46.5465 46.51526-46.5465 27.9279 0 46.5465 18.6186 46.5465 46.5465l0 186.12352C1023.648121 958.514261 958.514261 1023.648121 884.071101 1023.648121zM977.101621 372.228297c-27.896661 0-46.51526-18.599856-46.51526-46.527756L930.586361 139.589516c0-27.9279-18.6186-46.527756-46.51526-46.527756l-186.12352 0c-27.9279 0-46.5465-18.6186-46.5465-46.527756 0-27.909156 18.6186-46.527756 46.5465-46.527756l186.12352 0c74.44316 0 139.57702 65.13386 139.57702 139.589516L1023.648121 325.70054C1023.648121 353.62844 1005.029521 372.228297 977.101621 372.228297zM977.101621 558.339321 46.527756 558.339321C18.6186 558.339321 0 539.75196 0 511.82406c0-27.909156 18.6186-46.527756 46.527756-46.527756L977.101621 465.296304c27.9279 0 46.5465 18.599856 46.5465 46.527756S1005.029521 558.339321 977.101621 558.339321z" /></svg>