<?xml version="1.0" standalone="no"?><!DOCTYPE svg PUBLIC "-//W3C//DTD SVG 1.1//EN" "http://www.w3.org/Graphics/SVG/1.1/DTD/svg11.dtd"><svg class="icon" width="200px" height="200.00px" viewBox="0 0 1024 1024" version="1.1" xmlns="http://www.w3.org/2000/svg"><path fill="#333333" d="M47.984874 166.652578c309.462121 0 618.508779 0 928.029228 0 0 232.019331 0 463.904609 0 696.170556-309.317835 0-618.503663 0-928.029228 0C47.984874 630.831432 47.984874 399.092487 47.984874 166.652578zM942.978708 200.060455c-287.48969 0-574.412468 0-861.433484 0 0 147.423631 0 294.52799 0 443.098747 101.510952-101.334943 202.000644-201.650673 303.877939-303.350936 84.584444 85.691661 169.282474 171.498956 254.491135 257.82302 35.397185-41.674145 69.493747-81.8164 103.879905-122.299417 66.290799 71.742974 132.285862 143.166677 199.184505 215.567637C942.978708 526.376429 942.978708 363.498828 942.978708 200.060455z" /></svg>