<?xml version="1.0" standalone="no"?><!DOCTYPE svg PUBLIC "-//W3C//DTD SVG 1.1//EN" "http://www.w3.org/Graphics/SVG/1.1/DTD/svg11.dtd"><svg class="icon" width="200px" height="200.00px" viewBox="0 0 1024 1024" version="1.1" xmlns="http://www.w3.org/2000/svg"><path fill="#333333" d="M687.032889 330.224485l-0.210747 0c-32.17196 0-58.245172 26.114586-58.245172 58.325333 0 32.217212 26.073212 58.330505 58.245172 58.330505l0.210747 0c32.170667 0 58.246465-26.113293 58.246465-58.330505C745.279354 356.337778 719.203556 330.224485 687.032889 330.224485zM815.371636 260.231758 243.777939 260.231758c-32.210747 0-58.325333 26.115879-58.325333 58.326626l0 396.616404c0 32.209455 26.114586 58.325333 58.325333 58.325333l571.593697 0c32.213333 0 58.326626-26.115879 58.326626-58.325333L873.698263 318.559677C873.698263 286.347636 847.58497 260.231758 815.371636 260.231758zM838.701253 611.644768 663.72396 458.541253l-115.265939 94.307556 80.271515 57.338828-11.664808 11.664808-81.654949-58.326626-128.318061-116.650667L220.44703 602.41196 220.44703 318.559677c0-12.886626 10.450747-23.32703 23.330909-23.32703l571.593697 0c12.882747 0 23.329616 10.440404 23.329616 23.32703L838.701253 611.644768z" /></svg>