<?xml version="1.0" standalone="no"?><!DOCTYPE svg PUBLIC "-//W3C//DTD SVG 1.1//EN" "http://www.w3.org/Graphics/SVG/1.1/DTD/svg11.dtd"><svg class="icon" width="200px" height="200.00px" viewBox="0 0 1024 1024" version="1.1" xmlns="http://www.w3.org/2000/svg"><path fill="#333333" d="M960 192l-128 0c-35.392 0-64-28.672-64-64s-28.608-64-64-64L320 64C284.608 64 256 92.672 256 128S227.392 192 192 192L64 192C28.608 192 0 220.672 0 256l0 640c0 35.392 28.608 64 64 64l896 0c35.392 0 64-28.608 64-64L1024 256C1024 220.672 995.392 192 960 192zM512 832c-176.768 0-320-143.232-320-320 0-176.704 143.232-320 320-320s320 143.296 320 320C832 688.768 688.768 832 512 832zM512 320C405.952 320 320 405.952 320 512c0 105.984 85.952 192 192 192s192-86.016 192-192C704 405.952 618.048 320 512 320z" /></svg>