<?xml version="1.0" standalone="no"?><!DOCTYPE svg PUBLIC "-//W3C//DTD SVG 1.1//EN" "http://www.w3.org/Graphics/SVG/1.1/DTD/svg11.dtd"><svg class="icon" width="200px" height="200.00px" viewBox="0 0 1024 1024" version="1.1" xmlns="http://www.w3.org/2000/svg"><path fill="#333333" d="M512 357.668571c-101.668571 0-184.32 82.651429-184.32 184.32C327.68 643.657143 410.331429 726.308571 512 726.308571c101.668571 0 184.32-82.651429 184.32-184.32C696.32 440.32 613.668571 357.668571 512 357.668571zM921.6 255.268571l-122.88 0c-16.822857 0-35.108571-23.405714-40.228571-39.497143l-31.451429-95.085714c-5.12-16.091429-13.165714-29.257143-29.988571-29.257143L327.68 91.428571c-16.822857 0-24.868571 13.165714-29.988571 29.257143l-31.451429 95.085714c-5.12 16.091429-23.405714 39.497143-40.228571 39.497143L102.4 255.268571c-56.32 0-102.4 35.84-102.4 92.16l0 460.8c0 56.32 46.08 102.4 102.4 102.4l819.2 0c56.32 0 102.4-46.08 102.4-102.4l0-460.8C1024 291.108571 977.92 255.268571 921.6 255.268571zM512 808.228571c-147.017143 0-266.24-119.222857-266.24-266.24C245.76 394.971429 364.982857 275.748571 512 275.748571s266.24 119.222857 266.24 266.24C778.24 689.005714 659.017143 808.228571 512 808.228571z" /></svg>