<?xml version="1.0" standalone="no"?><!DOCTYPE svg PUBLIC "-//W3C//DTD SVG 1.1//EN" "http://www.w3.org/Graphics/SVG/1.1/DTD/svg11.dtd"><svg class="icon" width="200px" height="200.00px" viewBox="0 0 1024 1024" version="1.1" xmlns="http://www.w3.org/2000/svg"><path fill="#ffffff" d="M451.605491 551.71656c99.535971 0 180.514283-80.977289 180.514283-180.514283 0-99.535971-80.977289-180.514283-180.514283-180.514283s-180.514283 80.977289-180.514283 180.514283C271.092231 470.739271 352.069521 551.71656 451.605491 551.71656zM451.605491 572.282968c-103.18815 0-200.200648 40.184211-273.166473 113.149013S65.290005 855.409281 65.290005 958.596408l772.630972 0c0-103.18815-40.184211-200.199625-113.149013-273.164427S554.793642 572.282968 451.605491 572.282968zM659.545404 362.805026c72.675206-10.064216 128.817877-72.587202 128.817877-147.987472 0-82.387405-67.026556-149.413961-149.412938-149.413961-66.073858 0-122.257461 43.113937-141.921313 102.68366C587.377758 188.278107 655.738705 267.373537 659.545404 362.805026zM542.315446 558.493917c81.014128 17.187451 155.446351 57.354266 215.384465 117.293403 8.143471 8.143471 15.906272 16.565281 23.312962 25.223474l177.697121 0c0-85.410252-33.261545-165.708066-93.656053-226.102574-55.533804-55.534827-127.905088-88.103594-205.596542-92.988858C655.496182 459.621049 608.719832 526.202467 542.315446 558.493917z" /></svg>