<?xml version="1.0" standalone="no"?><!DOCTYPE svg PUBLIC "-//W3C//DTD SVG 1.1//EN" "http://www.w3.org/Graphics/SVG/1.1/DTD/svg11.dtd"><svg class="icon" width="200px" height="200.00px" viewBox="0 0 1024 1024" version="1.1" xmlns="http://www.w3.org/2000/svg"><path fill="#333333" d="M353.325629 292.509007c0 0-51.227732-111.443162 43.139519-181.544753 0 0 135.708821-117.737518 266.023796 29.658484 0 0 51.228755 78.189803 12.583596 156.379607 0 0 46.734394 56.619532-17.974373 122.226762 0 0-6.290263 65.60723-42.240033 99.759051l0 85.379553 161.77243 71.89954c0 0 205.808366 15.277962 195.023742 250.745834 0 0 1.797949 25.165146-33.253358 30.556946L89.997222 957.570032c0 0-36.848233-9.887184-37.746696-39.545668 0 0 4.493338-215.69555 156.379607-234.56941l207.606315-77.289294-7.498788-101.565187c0 0-43.728944-45.827745-41.032532-88.966241C367.706151 415.635255 309.287647 357.217774 353.325629 292.509007z" /></svg>