<?xml version="1.0" standalone="no"?><!DOCTYPE svg PUBLIC "-//W3C//DTD SVG 1.1//EN" "http://www.w3.org/Graphics/SVG/1.1/DTD/svg11.dtd"><svg class="icon" width="200px" height="200.00px" viewBox="0 0 1024 1024" version="1.1" xmlns="http://www.w3.org/2000/svg"><path d="M0 507.541333a512 507.541333 0 1 0 1024 0 512 507.541333 0 1 0-1024 0Z" fill="#FFDA69" /><path d="M657.493333 773.376a193.28 193.28 0 0 0-141.333333-61.013333 193.28 193.28 0 0 0-140.565333 60.202666 26.56 26.56 0 0 0 1.173333 37.76c10.837333 10.112 27.882667 9.6 38.08-1.152a139.178667 139.178667 0 0 1 101.312-43.392c39.189333 0 75.690667 16.106667 101.866667 43.989334a27.114667 27.114667 0 0 0 38.08 1.365333c10.88-10.026667 11.52-26.944 1.386666-37.76z" fill="#252B39" /><path d="M898.24 934.954667c0 49.173333-40.213333 89.045333-89.813333 89.045333-49.621333 0-89.813333-39.872-89.813334-89.045333 0-14.421333 3.434667-28.032 9.578667-40.064l80.213333-146.922667 80.256 146.922667c6.122667 12.032 9.6 25.642667 9.6 40.064z" fill="#548CFF" /><path d="M244.970667 395.776a82.282667 82.282667 0 0 1 56.149333-1.130667 22.592 22.592 0 0 0 28.565333-13.866666c4.053333-11.669333-2.133333-24.32-13.845333-28.309334a127.466667 127.466667 0 0 0-86.848 1.749334 127.232 127.232 0 0 0-69.653333 64.384 22.122667 22.122667 0 0 0 10.709333 29.610666 22.613333 22.613333 0 0 0 29.866667-10.794666 82.154667 82.154667 0 0 1 45.056-41.642667z m533.248 3.626667a82.282667 82.282667 0 0 0-56.149334-1.152 22.592 22.592 0 0 1-28.565333-13.866667c-4.053333-11.648 2.133333-24.32 13.845333-28.288a127.466667 127.466667 0 0 1 86.826667 1.728 127.232 127.232 0 0 1 69.674667 64.384 22.122667 22.122667 0 0 1-10.709334 29.610667 22.613333 22.613333 0 0 1-29.866666-10.794667 82.154667 82.154667 0 0 0-45.056-41.642667zM736.554667 614.4c34.730667 0 62.890667-31.744 62.890666-70.912 0-39.146667-28.16-70.890667-62.890666-70.890667-34.709333 0-62.869333 31.744-62.869334 70.890667 0 39.168 28.16 70.912 62.869334 70.912z m-449.109334 0c34.709333 0 62.869333-31.744 62.869334-70.912 0-39.146667-28.16-70.890667-62.869334-70.890667-34.730667 0-62.890667 31.744-62.890666 70.890667 0 39.168 28.16 70.912 62.890666 70.912z" fill="#252B39" /></svg>