<?xml version="1.0" standalone="no"?><!DOCTYPE svg PUBLIC "-//W3C//DTD SVG 1.1//EN" "http://www.w3.org/Graphics/SVG/1.1/DTD/svg11.dtd"><svg class="icon" width="200px" height="200.00px" viewBox="0 0 1024 1024" version="1.1" xmlns="http://www.w3.org/2000/svg"><path fill="#333333" d="M509.441223 192.092993c-176.456874 0-319.504848 143.045927-319.504848 319.504848 0 176.456874 143.047973 319.504848 319.504848 319.504848s319.505871-143.047973 319.505871-319.504848C828.946071 335.13892 685.898097 192.092993 509.441223 192.092993L509.441223 192.092993zM509.441223 819.690778c-170.156378 0-308.09396-137.937582-308.09396-308.092937 0-170.155355 137.937582-308.092937 308.09396-308.092937 170.156378 0 308.09396 137.937582 308.09396 308.092937C817.535183 681.753195 679.595554 819.690778 509.441223 819.690778L509.441223 819.690778zM293.829584 534.418592C305.234331 643.429355 397.40966 728.402655 509.439176 728.402655c112.031563 0 204.207915-84.9733 215.613686-193.983039L293.829584 534.419616 293.829584 534.418592zM389.62537 351.844394c22.059412 0 39.939641 22.99062 39.939641 51.348482 0 28.359908-17.882276 51.349505-39.939641 51.349505-22.057365 0-39.937594-22.989597-39.937594-51.349505C349.688799 374.835014 367.569028 351.844394 389.62537 351.844394L389.62537 351.844394zM629.254006 351.844394c22.059412 0 39.938618 22.99062 39.938618 51.348482 0 28.359908-17.880229 51.349505-39.938618 51.349505-22.055318 0-39.936571-22.989597-39.936571-51.349505C589.317435 374.835014 607.198687 351.844394 629.254006 351.844394L629.254006 351.844394z" /></svg>