<?xml version="1.0" standalone="no"?><!DOCTYPE svg PUBLIC "-//W3C//DTD SVG 1.1//EN" "http://www.w3.org/Graphics/SVG/1.1/DTD/svg11.dtd"><svg class="icon" width="200px" height="200.00px" viewBox="0 0 1024 1024" version="1.1" xmlns="http://www.w3.org/2000/svg"><path d="M0 512a512 512 0 1 0 1024 0 512 512 0 1 0-1024 0Z" fill="#FFDA69" /><path d="M179.648 503.018667c0 183.552 148.8 332.352 332.352 332.352 183.552 0 332.352-148.8 332.352-332.373334" fill="#252B39" /><path d="M220.629333 663.018667c56.533333 102.741333 165.824 172.352 291.370667 172.352 128.64 0 240.213333-73.088 295.466667-179.989334A722.986667 722.986667 0 0 0 522.666667 597.333333a722.666667 722.666667 0 0 0-302.037334 65.685334z" fill="#F55065" /><path d="M343.658667 311.402667l-123.178667-74.005334a26.944 26.944 0 1 0-27.754667 46.208l88.277334 53.034667-87.744 56.981333a26.944 26.944 0 1 0 29.354666 45.226667l120.512-78.293333c23.637333-20.266667 12.48-41.962667 0.533334-49.152z m334.4 0l123.178666-74.005334a26.944 26.944 0 1 1 27.754667 46.208l-88.277333 53.034667 87.744 56.981333a26.944 26.944 0 1 1-29.354667 45.226667L678.613333 360.533333c-23.637333-20.266667-12.48-41.962667-0.533333-49.152z" fill="#252B39" /></svg>