<?xml version="1.0" standalone="no"?><!DOCTYPE svg PUBLIC "-//W3C//DTD SVG 1.1//EN" "http://www.w3.org/Graphics/SVG/1.1/DTD/svg11.dtd"><svg class="icon" width="200px" height="200.00px" viewBox="0 0 1024 1024" version="1.1" xmlns="http://www.w3.org/2000/svg"><path d="M0 512a512 512 0 1 0 1024 0 512 512 0 1 0-1024 0Z" fill="#548CFF" /><path d="M701.184 386.410667c1.493333-0.106667 2.986667-0.170667 4.48-0.170667 32.256 0 58.389333 24.128 58.389333 53.909333 0 17.493333-9.002667 33.024-22.997333 42.88 13.824 7.936 22.997333 21.973333 22.997333 37.973334 0 19.52-13.738667 36.16-32.917333 42.325333 14.357333 7.872 23.936 22.165333 23.936 38.506667 0 20.096-14.506667 37.098667-34.538667 42.837333 10.048 6.528 16.576 17.088 16.576 29.013333 0 18.496-15.722667 33.706667-35.925333 35.712v0.213334H440.512a35.733333 35.733333 0 0 1-35.754667-35.52v-261.12c0-7.381333 3.008-14.08 7.872-18.901334 20.906667-26.602667 104.213333-104.618667 108.373334-133.568 4.48-31.445333 16.597333-80.853333 36.544-80.853333h6.016c26.389333 0 50.026667 21.376 51.562666 47.637333 0 0 14.208 104.469333-39.68 158.954667h125.738667v0.170667z m-467.626667 71.296c0-19.626667 15.914667-35.541333 35.690667-35.541334h54.357333c19.712 0 35.690667 16.042667 35.690667 35.541334v252.309333c0 19.626667-15.914667 35.52-35.690667 35.52H269.226667a35.690667 35.690667 0 0 1-35.712-35.52V457.706667z" fill="#FFFFFF" /></svg>