<?xml version="1.0" standalone="no"?><!DOCTYPE svg PUBLIC "-//W3C//DTD SVG 1.1//EN" "http://www.w3.org/Graphics/SVG/1.1/DTD/svg11.dtd"><svg class="icon" width="200px" height="200.00px" viewBox="0 0 1024 1024" version="1.1" xmlns="http://www.w3.org/2000/svg"><path d="M0 512a512 512 0 1 0 1024 0 512 512 0 1 0-1024 0Z" fill="#FFDA69" /><path d="M359.296 709.610667a197.610667 152.704 90 1 0 305.408 0 197.610667 152.704 90 1 0-305.408 0Z" fill="#252B37" /><path d="M772.48 483.477333c43.946667-7.744 71.573333-59.584 61.653333-115.754666-9.898667-56.192-53.568-95.445333-97.536-87.68-43.968 7.744-71.594667 59.562667-61.674666 115.754666 9.898667 56.170667 53.568 95.445333 97.536 87.68z m-513.216 3.498667c-43.968-7.765333-71.573333-59.584-61.674667-115.776 9.898667-56.170667 53.589333-95.445333 97.557334-87.68 43.946667 7.744 71.573333 59.584 61.653333 115.754667-9.898667 56.192-53.568 95.445333-97.536 87.68zM831.36 133.973333a126.762667 126.762667 0 0 0-86.144-40.064 126.698667 126.698667 0 0 0-83.136 25.386667 22.464 22.464 0 1 0 27.029333 35.882667 81.792 81.792 0 0 1 53.76-16.426667 81.856 81.856 0 0 1 55.68 25.92 22.464 22.464 0 0 0 32.810667-30.72z m-551.125333 8.746667c19.584-1.024 38.4 4.864 53.76 16.426667a22.464 22.464 0 0 0 27.008-35.882667 126.698667 126.698667 0 0 0-83.136-25.386667 126.762667 126.762667 0 0 0-86.122667 40.042667 22.464 22.464 0 0 0 32.768 30.698667 81.856 81.856 0 0 1 55.722667-25.898667z" fill="#252B37" /></svg>