<?xml version="1.0" standalone="no"?><!DOCTYPE svg PUBLIC "-//W3C//DTD SVG 1.1//EN" "http://www.w3.org/Graphics/SVG/1.1/DTD/svg11.dtd"><svg class="icon" width="200px" height="200.00px" viewBox="0 0 1024 1024" version="1.1" xmlns="http://www.w3.org/2000/svg"><path fill="#333333" d="M240.30146 354.046548l0 44.883233 112.208595 67.326385-112.208595 67.325361 0 44.884256 179.534979-112.209618L240.30146 354.046548zM958.441377 511.139399c0-247.879554-200.947661-448.837448-448.837448-448.837448-247.891833 0-448.838472 200.957895-448.838472 448.837448s200.946638 448.848705 448.838472 448.848705c8.776897 0 17.34504-0.831948 26.003234-1.314948 4.26207 0.703011 8.568143 1.314948 13.027711 1.314948L880.37437 959.988104c41.069371 0 74.696236-31.713282 77.807087-71.972195l0.25992 0L958.441377 530.656919c0-2.225691-0.471744-4.327562-0.657986-6.510274C957.904141 519.785314 958.441377 515.5345 958.441377 511.139399zM913.558144 528.70445l0 316.13817c0 38.790468-31.450293 70.263274-70.252017 70.263274L544.735054 915.105894c-4.02364 0-7.900947-0.547469-11.726066-1.183965-7.79043 0.438998-15.505136 1.183965-23.405059 1.183965-223.094054 0-403.955238-180.849928-403.955238-403.966495 0-223.092008 180.861184-403.953192 403.955238-403.953192 223.092008 0 403.954215 180.861184 403.954215 403.953192 0 3.956102-0.483001 7.78122-0.593518 11.703553C913.129378 524.805654 913.558144 526.699794 913.558144 528.70445zM397.394311 664.49616c0 51.655474 40.193421 93.516884 89.76749 93.516884 49.575092 0 89.766466-41.860387 89.766466-93.516884l0-86.029352L397.394311 578.466808 397.394311 664.49616zM442.278567 623.360274l89.766466 0 0 42.998303c0 25.816992-20.095687 46.769186-44.883233 46.769186-24.786523 0-44.883233-20.952194-44.883233-46.769186L442.278567 623.360274zM734.022141 578.465784l0-44.884256-112.208595-67.325361 112.208595-67.326385L734.022141 354.046548 554.487162 466.256166 734.022141 578.465784z" /></svg>