<?xml version="1.0" standalone="no"?><!DOCTYPE svg PUBLIC "-//W3C//DTD SVG 1.1//EN" "http://www.w3.org/Graphics/SVG/1.1/DTD/svg11.dtd"><svg class="icon" width="200px" height="200.00px" viewBox="0 0 1024 1024" version="1.1" xmlns="http://www.w3.org/2000/svg"><path d="M0 512a512 512 0 1 0 1024 0 512 512 0 1 0-1024 0Z" fill="#F66A51" /><path d="M507.52 857.813333c91.754667 0 166.165333-10.026667 166.165333-35.136 0-10.026667-74.410667-41.194667-166.186666-41.194666S341.333333 817.664 341.333333 822.677333c0 19.413333 74.389333 35.157333 166.186667 35.157334zM779.093333 613.056a53.888 53.888 0 1 1-86.314666 14.229333c-26.24 2.112-54.186667 2.730667-85.12 2.410667-10.709333-0.106667-14.293333-0.128-19.306667-0.128a22.464 22.464 0 1 1 0-44.928c5.226667 0 8.896 0.042667 19.776 0.149333 110.272 1.152 177.429333-10.112 269.696-61.013333a22.464 22.464 0 0 1 21.696 39.338667c-43.157333 23.808-81.472 39.68-120.426667 49.92z m-447.658666 14.634667a53.888 53.888 0 1 1-87.552-13.589334c-40.362667-10.24-79.829333-26.368-124.48-50.986666a22.464 22.464 0 0 1 21.696-39.338667c92.245333 50.901333 159.424 62.165333 269.696 61.013333 10.88-0.106667 14.549333-0.149333 19.776-0.149333a22.464 22.464 0 0 1 0 44.928c-5.013333 0-8.597333 0-19.328 0.128a966.869333 966.869333 0 0 1-79.786667-2.005333z" fill="#252B39" /></svg>