<?xml version="1.0" standalone="no"?><!DOCTYPE svg PUBLIC "-//W3C//DTD SVG 1.1//EN" "http://www.w3.org/Graphics/SVG/1.1/DTD/svg11.dtd"><svg class="icon" width="200px" height="200.00px" viewBox="0 0 1024 1024" version="1.1" xmlns="http://www.w3.org/2000/svg"><path fill="#333333" d="M510.531044 862.823134c-90.573855-108.802008-176.207188-215.557404-239.090377-339.157443-49.305963-96.918353-45.208645-188.204429 15.426341-277.644461C373.79687 117.792776 561.884642 91.402733 682.163029 190.755532c65.22349 53.875025 99.720166 122.948193 102.118795 207.978798 1.059122 37.621852-10.568706 71.895447-25.76685 105.168248C697.59244 637.284401 605.754802 749.204423 510.531044 862.823134L510.531044 862.823134zM509.840312 519.931646c75.217099 0.471744 137.358391-60.966537 138.622174-137.050376 1.251503-75.485205-60.578704-137.711432-138.425699-139.309836-73.290213-1.503237-137.553842 61.910025-137.458675 135.636167C372.681466 456.882682 433.715541 519.455809 509.840312 519.931646L509.840312 519.931646zM509.840312 519.931646" /></svg>