<?xml version="1.0" standalone="no"?><!DOCTYPE svg PUBLIC "-//W3C//DTD SVG 1.1//EN" "http://www.w3.org/Graphics/SVG/1.1/DTD/svg11.dtd"><svg class="icon" width="200px" height="200.00px" viewBox="0 0 1024 1024" version="1.1" xmlns="http://www.w3.org/2000/svg"><path fill="#333333" d="M512 42.667c-259.2 0-469.333 210.133-469.333 469.333s210.133 469.333 469.333 469.333 469.333-210.133 469.333-469.333-210.133-469.333-469.333-469.333zM512 896c-211.755 0-384-172.245-384-384s172.245-384 384-384c211.755 0 384 172.245 384 384 0 211.755-172.245 384-384 384zM725.333333 469.333333l-170.666667 0L554.666667 298.666667c0-23.594667-19.072-42.666667-42.666667-42.666667s-42.666667 19.072-42.666667 42.666667l0 170.666667L298.666667 469.333333c-23.594667 0-42.666667 19.072-42.666667 42.666667s19.072 42.666667 42.666667 42.666667l170.666667 0 0 170.666667c0 23.594667 19.072 42.666667 42.666667 42.666667s42.666667-19.072 42.666667-42.666667l0-170.666667 170.666667 0c23.594667 0 42.666667-19.072 42.666667-42.666667S748.928 469.333333 725.333333 469.333333z" /></svg>