<?xml version="1.0" standalone="no"?><!DOCTYPE svg PUBLIC "-//W3C//DTD SVG 1.1//EN" "http://www.w3.org/Graphics/SVG/1.1/DTD/svg11.dtd"><svg class="icon" width="200px" height="200.00px" viewBox="0 0 1024 1024" version="1.1" xmlns="http://www.w3.org/2000/svg"><path fill="#333333" d="M810.336224 959.989127 212.035696 959.989127c-31.467689 0-56.980759-25.514093-56.980759-56.981782L155.054937 307.532165l229.505068 103.670128c-0.86981 5.947456-1.468444 11.971659-1.468444 18.154475 0 68.839855 55.80498 124.645858 124.645858 124.645858s124.644835-55.80498 124.644835-124.645858c0-5.119601-0.403183-10.133801-1.001817-15.10093l235.936547-106.574271 0 595.3268C867.31596 934.476057 841.804936 959.989127 810.336224 959.989127zM485.131561 358.307595l23.902386 52.017724 23.597441-52.017724 47.799656 0-36.420491 65.943898 30.986735 0 0 23.054065-43.917232 0 0 12.628622 43.917232 0 0 23.370267-43.917232 0 0 27.961842-43.406602 0 0-27.961842-44.651966 0 0-23.370267 44.651966 0 0-12.628622-44.651966 0 0-23.054065 31.92306 0-37.4571-65.943898L485.131561 358.307595zM507.737418 304.71091c-54.67832 0-101.020788 35.258015-117.821429 84.240613L155.053913 282.859229 155.053913 119.524211c0-31.467689 25.51307-56.980759 56.980759-56.980759l598.300528 0c31.468712 0 56.980759 25.51307 56.980759 56.980759l0 163.582659L626.609783 391.840316C610.694301 341.343225 563.500443 304.71091 507.737418 304.71091z" /></svg>