<?xml version="1.0" standalone="no"?><!DOCTYPE svg PUBLIC "-//W3C//DTD SVG 1.1//EN" "http://www.w3.org/Graphics/SVG/1.1/DTD/svg11.dtd"><svg class="icon" width="200px" height="151.14px" viewBox="0 0 1355 1024" version="1.1" xmlns="http://www.w3.org/2000/svg"><path fill="#ffffff" d="M1307.373125 557.968173 161.413889 557.968173l385.675072 385.675072c18.396608 18.396608 18.396608 48.186038 0 66.535954-18.396608 18.396608-48.186038 18.396608-66.535954 0l-463.930692-463.930692C6.630249 537.703889 0 525.42392 0 511.276276c0-12.79358 5.603028-23.999635 13.960877-32.404177 0.326843-0.326843 0.420227-0.74707 0.700378-1.073914 0.046692-0.046692 0.093384-0.046692 0.140076-0.093384 0.140076-0.093384 0.186768-0.280151 0.280151-0.420227 0.373535-0.420227 0.513611-0.98053 0.933838-1.400757l462.249783-462.203092c18.20984-18.256532 47.812503-18.256532 66.022343 0 18.256532 18.256532 18.256532 47.812503 0 66.022343L159.406137 464.584378 1307.373125 464.584378c25.773927 0 46.691897 20.91797 46.691897 46.691897C1354.065022 537.050203 1333.147052 557.968173 1307.373125 557.968173z" /></svg>