<?xml version="1.0" standalone="no"?><!DOCTYPE svg PUBLIC "-//W3C//DTD SVG 1.1//EN" "http://www.w3.org/Graphics/SVG/1.1/DTD/svg11.dtd"><svg class="icon" width="200px" height="200.00px" viewBox="0 0 1024 1024" version="1.1" xmlns="http://www.w3.org/2000/svg"><path fill="#ffffff" d="M950.085126 582.365425c40.546857 0 73.547138-31.977017 73.547138-70.925023s-33.064235-70.349436-73.547138-70.349436L250.108235 441.090966l333.967961-321.624832c27.947912-27.43628 27.947912-72.332011 0-99.192705-29.035131-26.988602-74.634357-26.988602-103.733442 0L21.536521 462.451613 18.914405 464.62605 17.891141 466.033039l-2.110483 1.918621L14.821347 469.614465c-1.982575 2.877931-4.093058 5.500047-5.755863 8.505886l0 0L7.402679 480.48665 6.955001 482.597133C5.420104 485.475065 4.332886 488.992537 3.373575 492.06233L3.373575 492.446054 2.414265 498.969366 1.327046 505.428723 0.367736 509.585735l0 1.023265 0 2.430253 0 0.447678 0.95931 4.029104 1.151173 6.395403 0.95931 5.755863 0 1.982575C4.332886 534.527808 5.420104 536.830153 6.955001 540.411579L7.402679 542.394154l1.598851 2.877931 0 0c1.598851 2.494207 3.773288 5.116323 5.755863 7.098898l1.023265 3.00584 2.110483 1.982575L18.914405 558.382662l2.622115 3.00584 458.806233 441.346782c29.099085 27.308372 74.698311 27.308372 103.733442 0 28.011866-27.052556 28.011866-71.948287 0-99.000843L250.108235 582.365425 950.085126 582.365425 950.085126 582.365425 950.085126 582.365425z" /></svg>