<?xml version="1.0" standalone="no"?><!DOCTYPE svg PUBLIC "-//W3C//DTD SVG 1.1//EN" "http://www.w3.org/Graphics/SVG/1.1/DTD/svg11.dtd"><svg class="icon" width="200px" height="200.00px" viewBox="0 0 1024 1024" version="1.1" xmlns="http://www.w3.org/2000/svg"><path fill="#333333" d="M64 448l896 0c57.6 0 83.2-70.4 44.8-108.8l-192-192c-25.6-25.6-64-25.6-89.6 0s-25.6 64 0 89.6L806.4 320 64 320C25.6 320 0 345.6 0 384S25.6 448 64 448zM960 576 64 576c-57.6 0-83.2 70.4-44.8 108.8l192 192c25.6 25.6 64 25.6 89.6 0 25.6-25.6 25.6-64 0-89.6L217.6 704 960 704c38.4 0 64-25.6 64-64S998.4 576 960 576z" /></svg>