<?xml version="1.0" standalone="no"?><!DOCTYPE svg PUBLIC "-//W3C//DTD SVG 1.1//EN" "http://www.w3.org/Graphics/SVG/1.1/DTD/svg11.dtd"><svg class="icon" width="200px" height="200.00px" viewBox="0 0 1024 1024" version="1.1" xmlns="http://www.w3.org/2000/svg"><path fill="#333333" d="M477.226902 354.098523c-12.960882-17.589768-38.543947-19.644542-54.078942-4.448247l-0.767718 0.745138c-12.938302 12.599603-14.609217 32.786064-4.064388 47.417861 28.879735 39.424564 46.108225 87.971422 46.108225 140.560088 0 48.682337-14.631797 94.045424-39.831003 131.641014-10.002911 15.173716-7.202999 35.563396 6.66108 47.417861 16.302712 13.886659 41.298699 10.544829 53.333804-7.225579 33.124763-49.404895 52.566086-108.835281 52.566086-172.736494C537.221786 468.714267 515.003131 405.400132 477.226902 354.098523zM364.643352 489.284587c-9.822271-13.164101-26.124983-21.292878-42.382536-21.292878-16.325292 0-32.582845 8.128776-42.405116 21.292878-9.822271 13.118942-12.960882 31.069989-8.331996 46.650143-4.651466 15.715634-1.490276 33.486042 8.331996 46.650143 9.822271 13.118942 26.102404 21.292878 42.405116 21.292878 16.280132 0 32.560265-8.173936 42.382536-21.292878 9.799691-13.164101 12.960882-31.115149 8.331996-46.650143C377.604234 520.354576 374.443043 502.403528 364.643352 489.284587zM543.160309 225.009041l-2.393473 2.980551c-12.599603 14.835017-11.470606 36.669813 2.032194 50.353252 65.526968 65.910827 106.080529 157.04344 106.080529 257.569305 0 99.08075-39.424564 188.677927-103.303197 254.588754-13.344741 13.68344-14.247938 35.337596-2.054774 49.991974 14.089879 16.844631 39.627784 17.770408 54.824079 2.257993 78.307211-79.662007 126.492789-188.858567 126.492789-309.412834 0-120.960706-48.524278-230.383065-127.215347-310.180551C582.607453 207.441852 557.227607 208.548269 543.160309 225.009041zM508.048512 39.289085C242.824609 39.289085 27.999118 254.114576 27.999118 519.338479c0 265.201323 214.825491 480.071974 480.026814 480.071974 265.223903 0 480.049394-214.87065 480.049394-480.071974C988.097905 254.114576 773.249835 39.289085 508.048512 39.289085zM511.322602 937.902712c-229.344388 0-415.244983-185.810276-415.244983-415.380463 0-229.547607 185.765116-415.199824 415.244983-415.199824 229.525028 0 415.244983 185.968335 415.244983 415.380463C926.567585 752.092437 740.66699 937.902712 511.322602 937.902712z" /></svg>